<svg width="161" height="25" viewBox="0 0 161 25" fill="none" xmlns="http://www.w3.org/2000/svg">
<g clip-path="url(#clip0_300_909)">
<path d="M15.4211 0.0427246H19.4804V19.034H15.4211V16.85C13.9018 18.4405 11.4567 19.2713 8.44179 19.2713C3.95511 19.2713 0.109375 17.396 0.109375 12.0547C0.109375 6.71342 3.95511 4.81429 8.44179 4.81429C11.4567 4.81429 13.9018 5.64514 15.4211 7.23567V0.0427246ZM9.79494 15.8767C13.427 15.8767 15.4211 14.8084 15.4211 12.0547C15.4211 9.27723 13.427 8.20897 9.79494 8.20897C6.16285 8.20897 4.19249 9.27723 4.19249 12.0547C4.19249 14.8084 6.16285 15.8767 9.79494 15.8767ZM30.4683 15.9717C33.2696 15.9717 34.9787 15.4494 35.9995 14.025H40.0351C39.1094 17.5859 35.6435 19.2713 30.4683 19.2713C25.1509 19.2713 21.0202 17.1824 21.0202 12.0547C21.0202 6.90333 25.0321 4.81429 30.7058 4.81429C36.0232 4.81429 40.2726 6.64219 40.2726 13.0043H25.1745C25.6255 15.2358 27.762 15.9717 30.4683 15.9717ZM30.6819 7.90037C27.9045 7.90037 25.9579 8.44638 25.317 10.4167H35.9283C35.2399 8.44638 33.2458 7.90037 30.6819 7.90037ZM54.8583 5.05168H59.3687L52.2708 19.034H46.4783L39.4041 5.05168H43.9145L49.3982 16.1616L54.8583 5.05168Z" fill="#FE891F"/>
<path d="M71.5047 1.94185L65.3326 22.5948H61.1545L67.3267 1.94185H71.5047ZM83.0536 4.81429C88.8934 4.81429 92.2169 6.68967 92.2642 11.9835V19.034H88.1812V17.3011C85.7123 18.5118 82.9824 19.2713 79.6826 19.2713C75.7655 19.2713 73.3204 18.0132 73.3204 14.8559C73.3204 11.2238 77.3087 10.0844 81.7479 10.0844C84.1455 10.0844 86.3532 10.4642 88.1812 11.0814C88.1812 8.42263 84.7627 8.20897 82.8636 8.20897C81.0356 8.20897 78.8042 8.37514 75.9318 9.22977L74.4837 6.26236C77.3324 5.33655 80.1335 4.81429 83.0536 4.81429ZM88.1812 14.6897V13.5978C86.7568 13.1467 84.8339 12.7431 82.2464 12.7431C79.2078 12.7431 77.3799 13.2654 77.3799 14.6897C77.3799 16.1616 78.733 16.2803 80.8458 16.2803C83.0536 16.2803 86.092 15.5918 88.1812 14.6897ZM93.4199 14.12H97.4794C97.4794 15.6156 99.0223 16.1853 103.556 16.1853C107.948 16.1853 108.66 15.9004 108.66 14.8084C108.66 13.7402 107.996 13.669 103.082 13.3604C96.9333 13.0043 93.9184 12.5295 93.9184 9.15853C93.9184 5.50272 98.1915 4.81429 103.177 4.81429C108.447 4.81429 112.269 5.50272 112.269 9.34846H108.186C108.186 8.18524 106.714 7.90037 102.939 7.90037C99.0936 7.90037 98.0015 8.18524 98.0015 8.99236C98.0015 9.87071 98.7375 10.0132 103.556 10.3692C109.016 10.7728 112.744 10.9152 112.744 14.6423C112.744 18.583 109.183 19.2713 103.794 19.2713C98.4051 19.2713 93.4199 18.583 93.4199 14.12ZM114.29 0.0427246H118.349V3.57986H114.29V0.0427246ZM114.29 5.05168H118.349V19.034H114.29V5.05168ZM135.183 5.05168H139.266V16.8025C139.266 22.4999 135.444 24.9689 130.15 24.9689C126.091 24.9689 122.743 24.2092 121.39 23.8531V20.577C123.028 20.8857 126.162 21.5742 129.248 21.5742C133.45 21.5742 135.016 19.9598 135.183 16.3752C133.758 17.942 131.408 18.8678 128.108 18.8678C123.313 18.8678 119.895 16.7788 119.895 11.8411C119.895 6.90333 123.313 4.81429 128.108 4.81429C131.432 4.81429 133.782 5.74011 135.183 7.30689V5.05168ZM129.58 15.4731C133.402 15.4731 135.183 14.4049 135.183 11.8411C135.183 9.27723 133.402 8.20897 129.58 8.20897C125.758 8.20897 123.954 9.27723 123.954 11.8411C123.954 14.4049 125.758 15.4731 129.58 15.4731ZM153.5 4.81429C157.227 4.81429 160.716 6.14367 160.764 11.2951L160.716 19.034H156.633V12.8381C156.633 9.87071 155.636 8.32766 152.289 8.32766C149.559 8.32766 146.615 9.72827 145.357 11.2001V19.034H141.298V5.05168H145.357V7.49681C147.351 5.93003 150.105 4.81429 153.5 4.81429Z" fill="white"/>
</g>
<defs>
<clipPath id="clip0_300_909">
<rect width="160.795" height="25" fill="white"/>
</clipPath>
</defs>
</svg>
