<svg width="120" height="25" viewBox="0 0 120 25" fill="none" xmlns="http://www.w3.org/2000/svg">
<path d="M11.6554 0.406425C12.2402 -0.146414 13.1625 -0.134943 13.7332 0.438933C14.304 1.01281 14.3104 1.93523 13.7544 2.51695L13.7275 2.54434L3.34746 12.8676L10.5268 20.0863C11.1066 20.6693 11.104 21.6119 10.521 22.1917C9.93801 22.7715 8.99543 22.7689 8.41564 22.186L0.606424 14.3339C-0.205288 13.5177 -0.201668 12.198 0.614507 11.3863L11.6279 0.433176L11.6554 0.406425Z" fill="#FFC795"/>
<path fill-rule="evenodd" clip-rule="evenodd" d="M15.1244 5.35528C15.9406 4.54361 17.2603 4.54726 18.072 5.36348L24.4415 11.7687C25.2532 12.585 25.2495 13.9047 24.4333 14.7163L18.3038 20.8116C18.4588 21.1742 18.5447 21.5734 18.5447 21.9926C18.5446 23.6535 17.1982 24.9999 15.5374 24.9999C13.8765 24.9999 12.5301 23.6535 12.5301 21.9926C12.5301 20.3318 13.8765 18.9854 15.5374 18.9854C15.6589 18.9854 15.7786 18.9926 15.8963 19.0066L21.7004 13.2349L16.5906 8.09637L14.6034 10.0723C15.6845 10.7658 16.4009 11.9782 16.4009 13.3579C16.4009 15.5121 14.6545 17.2584 12.5004 17.2584C10.3462 17.2584 8.59987 15.5121 8.59985 13.3579C8.59985 11.9986 9.29519 10.8017 10.3496 10.1034L15.1244 5.35528ZM15.5374 21.1292C15.0605 21.1292 14.6739 21.5157 14.6739 21.9926C14.6739 22.4695 15.0605 22.8561 15.5374 22.8561C16.0143 22.8561 16.4009 22.4695 16.4009 21.9926C16.4009 21.5157 16.0143 21.1292 15.5374 21.1292ZM12.5004 12.1967C12.4891 12.1967 12.4779 12.1968 12.4667 12.1972L12.4452 12.2186L12.4258 12.1991C11.8192 12.2375 11.3391 12.7416 11.3391 13.3579C11.3392 13.9992 11.859 14.5191 12.5004 14.5191C13.1417 14.5191 13.6616 13.9992 13.6616 13.3579C13.6616 12.7166 13.1417 12.1967 12.5004 12.1967Z" fill="#FE891F"/>
<path d="M35.1509 5.36451C39.2323 5.36451 41.7884 8.1267 41.7884 12.7029C41.7884 17.2378 39.2942 20 35.2746 20H30.9251V5.36451H35.1509ZM33.9347 17.279H35.1509C37.3565 17.279 38.5933 15.7743 38.5933 12.6823C38.5933 9.59025 37.3565 8.08547 35.1509 8.08547H33.9347V17.279ZM41.7666 14.5375C41.7666 11.0332 43.8279 8.82755 47.0848 8.82755C49.7646 8.82755 52.2176 10.5797 52.2794 14.5787V15.2177H44.8998C45.0647 16.7637 45.848 17.7119 47.0848 17.7119C47.9506 17.7119 48.6721 17.1554 49.0225 16.269L52.1145 16.5782C51.5167 18.7838 49.5378 20.2474 47.0848 20.2474C43.8279 20.2474 41.7666 18.0417 41.7666 14.5375ZM44.9823 13.3831H49.1049C48.837 12.0639 48.0537 11.363 47.0848 11.363C45.9923 11.363 45.2502 12.1257 44.9823 13.3831ZM63.5331 9.07491L59.6372 20H56.2978L52.4019 9.07491H55.5145L57.9675 16.6812L60.3999 9.07491H63.5331ZM63.0784 20L67.4691 5.36451H70.4374L74.8281 20H71.6742L70.9321 17.3615H66.9744L66.2323 20H63.0784ZM67.6546 14.9703H70.2519L68.9533 10.3323L67.6546 14.9703ZM81.4644 12.6204C81.3201 11.7547 80.6811 11.363 79.7947 11.363C78.9702 11.363 78.3724 11.6928 78.4342 12.3112C78.4755 12.9915 79.3206 13.1976 80.846 13.548C83.0722 14.0221 84.7213 15.1971 84.7213 16.9904C84.7213 19.1342 82.9279 20.2474 80.1658 20.2474C77.4036 20.2474 75.301 18.7426 75.1361 16.4339L78.2899 16.3102C78.393 17.2172 79.1351 17.7119 80.1658 17.7119C81.0315 17.7119 81.6293 17.4852 81.6293 16.908C81.6293 16.3102 80.8254 16.0628 79.4031 15.7124C76.9913 15.1352 75.3422 14.084 75.3422 12.2906C75.3422 10.188 77.3211 8.82755 79.9802 8.82755C82.392 8.82755 84.3297 10.2499 84.6595 12.4967L81.4644 12.6204ZM93.1098 9.07491V17.4027H96.4079V20H86.2867V17.4027H90.1827V11.6722H86.5547V9.07491H93.1098ZM90.1414 7.79688V5.36451H93.0685V7.79688H90.1414ZM101.168 19.4228C98.7154 19.4228 96.9633 17.3615 96.9633 14.4138C96.9633 11.0332 98.6742 8.82755 101.168 8.82755C102.591 8.82755 103.601 9.52841 104.178 10.7034L104.219 9.07491H107.064V18.2685C106.981 21.7315 105.374 23.3394 102.199 23.3394C99.5606 23.3394 97.8703 22.1232 97.3756 20.2267L100.426 20.0206C100.736 20.7421 101.333 21.1543 102.199 21.1543C103.395 21.1543 104.096 20.3092 104.137 18.8044V17.8768C103.642 18.7838 102.405 19.4228 101.168 19.4228ZM100.055 14.3519C100.055 16.2071 100.88 17.4027 102.199 17.4027C103.498 17.4027 104.281 16.2071 104.302 14.3519C104.302 12.5173 103.498 11.3218 102.199 11.3218C100.88 11.3218 100.055 12.5173 100.055 14.3519ZM108.588 9.07491H111.288L111.391 10.7858C111.948 9.50779 112.979 8.82755 114.319 8.82755C116.504 8.82755 117.679 10.4148 117.679 12.9708V20H114.751V13.5274C114.751 11.8989 114.257 11.0744 113.226 11.0744C112.175 11.0744 111.515 11.8989 111.515 13.5274V20H108.588V9.07491Z" fill="white"/>
</svg>
