<svg width="198" height="64" viewBox="0 0 198 64" fill="none" xmlns="http://www.w3.org/2000/svg">
<g clip-path="url(#clip0_300_878)">
<path fill-rule="evenodd" clip-rule="evenodd" d="M73.658 19.8806C77.3908 19.8806 81.0456 17.8945 81.0456 14.084C81.0456 10.2734 77.6831 9.0551 74.6114 8.41951L72.3345 7.94246C70.6921 7.59898 69.4214 6.77845 69.4214 5.18876C69.4214 3.17632 71.8306 2.51579 73.235 2.51579C75.0624 2.51579 77.1543 3.20421 77.7624 5.48086H80.6754C79.9336 1.61599 76.8884 0.00134313 73.3672 0.00134313C70.1368 0.00134313 66.3512 1.69525 66.3512 5.32233C66.3512 8.55162 68.9455 10.087 71.6734 10.6433L74.0297 11.1204L74.1531 11.1468C76.17 11.5769 78.0004 12.3783 78.0004 14.3232C78.0004 16.2682 76.2523 17.3676 73.7638 17.3676C71.0623 17.3676 69.2892 16.0172 68.7325 13.397H65.7665C66.2161 17.4204 69.2084 19.882 73.6566 19.882L73.658 19.8806ZM88.9444 19.5371V17.3397H87.7795C86.4178 17.3397 86.1695 16.9771 86.1651 15.5636V7.38761H88.9724V5.29591H86.1651V1.64241H83.4107V5.29591H81.2395V7.38761H83.4107V15.885C83.4107 18.8237 84.0468 19.5385 86.9319 19.5385H88.9444V19.5371ZM96.3937 19.8806C100.021 19.8806 102.139 17.7096 102.801 15.3537H100.021C99.4375 16.7041 98.2726 17.5246 96.288 17.5246C94.0639 17.5246 92.3951 15.8836 92.1307 13.2634H102.986C103.277 8.63089 100.709 5.03023 96.3144 5.03023C92.2629 5.03023 89.297 7.96888 89.297 12.3886C89.297 16.5177 91.7855 19.8806 96.3937 19.8806ZM100.126 11.0925H92.1836C92.5538 8.39309 94.1432 7.28046 96.288 7.28046C98.5649 7.28046 100.049 8.97437 100.128 11.0925H100.126ZM107.205 19.5371V0.344822H104.451V19.5371H107.205ZM112.43 19.5371V0.344822H109.676V19.5371H112.43ZM119.138 19.8806C121.441 19.8806 123.057 19.0864 123.903 17.6568C123.956 18.5566 124.035 18.9808 124.141 19.5356H126.788C126.524 18.2644 126.392 16.5177 126.392 14.3996C126.392 13.7904 126.445 11.3288 126.445 10.9853C126.497 6.72414 124.379 4.9495 120.699 4.9495C117.443 4.9495 114.954 6.77551 114.715 9.79343H117.495C117.601 8.04668 118.687 7.06762 120.594 7.06762C122.342 7.06762 123.665 7.91457 123.665 10.429V10.7197C118.132 11.3024 114.054 12.2286 114.054 15.6957C114.054 18.2894 116.251 19.8776 119.138 19.8776V19.8806ZM119.747 17.7624C118.079 17.7624 117.046 16.9419 117.046 15.6443C117.046 13.7919 119.376 13.1827 123.797 12.7585V13.7904C123.797 16.6234 122.023 17.761 119.746 17.761L119.747 17.7624ZM131.354 19.5356V12.0701C131.354 9.07858 132.466 8.04668 134.584 8.04668C135.034 8.04668 135.511 8.0731 136.014 8.12594V5.26655C135.776 5.24013 135.485 5.24013 135.245 5.24013C133.471 5.26655 132.041 6.19277 131.3 7.80742V5.29298H128.598V19.5341H131.353L131.354 19.5356ZM74.9816 41.9395C79.2446 41.9395 82.4485 39.6101 83.2697 35.3489H80.3567C79.7735 37.8897 77.8946 39.4251 75.0609 39.4251C71.7248 39.4251 69.2892 36.6993 69.2892 31.9596C69.2892 27.2199 71.8041 24.5748 75.0345 24.5748C77.8417 24.5748 79.6941 26.163 80.2773 28.651H83.1904C82.3956 24.4427 79.2711 22.0603 75.1682 22.0603C69.6609 22.0603 66.1926 25.9516 66.1926 31.961C66.1926 37.9705 69.4229 41.941 74.9831 41.941L74.9816 41.9395ZM90.8512 41.9395C94.2402 41.9395 97.7878 39.6629 97.7878 34.5283C97.7878 29.3938 94.2402 27.0892 90.8512 27.0892C87.4622 27.0892 83.941 29.3659 83.941 34.5283C83.941 39.6908 87.4887 41.9395 90.8512 41.9395ZM90.8512 39.6101C88.7858 39.6101 86.8526 38.0483 86.8526 34.5269C86.8526 31.0055 88.7858 29.4172 90.8512 29.4172C92.9166 29.4172 94.8763 30.979 94.8763 34.5269C94.8763 38.0747 92.9431 39.6101 90.8512 39.6101ZM102.059 41.5961V33.9456C102.059 31.1126 103.145 29.3923 105.342 29.3923C107.831 29.3923 108.15 31.2976 108.15 33.3628V41.5961H110.904V33.9456C110.904 31.1126 112.016 29.3923 114.187 29.3923C116.676 29.3923 116.995 31.2976 116.995 33.3628V41.5961H119.749V32.623C119.749 29.3145 118.452 27.0907 115.116 27.0907C113.262 27.0907 111.594 27.832 110.403 29.6051C109.767 28.0169 108.47 27.0907 106.272 27.0907C104.233 27.0907 102.883 28.0169 102.062 29.4202V27.3549H99.3082V41.5961H102.062H102.059ZM124.733 41.5961V33.9456C124.733 31.1126 125.819 29.3923 128.016 29.3923C130.505 29.3923 130.824 31.2976 130.824 33.3628V41.5961H133.578V33.9456C133.578 31.1126 134.69 29.3923 136.861 29.3923C139.35 29.3923 139.669 31.2976 139.669 33.3628V41.5961H142.423V32.623C142.423 29.3145 141.126 27.0907 137.79 27.0907C135.936 27.0907 134.268 27.832 133.077 29.6051C132.441 28.0169 131.144 27.0907 128.946 27.0907C126.907 27.0907 125.557 28.0169 124.736 29.4202V27.3549H121.982V41.5961H124.736H124.733ZM149.102 41.9395C151.247 41.9395 152.624 41.0133 153.445 39.5836V41.5961H156.226V27.3549H153.471V35.0846C153.471 37.8912 152.333 39.6115 150.029 39.6115C147.541 39.6115 147.196 37.7327 147.196 35.6674V27.3549H144.441V36.4087C144.441 39.8493 145.738 41.941 149.101 41.941L149.102 41.9395ZM161.423 41.5961V33.9456C161.423 31.1126 162.588 29.3923 164.971 29.3923C167.54 29.3923 167.903 31.2609 167.91 33.3012V41.5961H170.664V32.623C170.664 29.3145 169.341 27.0907 165.899 27.0907C163.675 27.0907 162.246 28.0169 161.424 29.4202V27.3549H158.67V41.5961H161.423ZM175.624 25.4481V22.4038H172.869V25.4481H175.624ZM175.624 41.5961V27.3549H172.869V41.5961H175.624ZM184.185 41.5961V39.3987H183.02C181.644 39.3987 181.406 39.0288 181.406 37.5727V29.4466H184.213V27.3549H181.406V23.7014H178.651V27.3549H176.48V29.4466H178.651V37.944C178.651 40.8827 179.287 41.5975 182.173 41.5975H184.185V41.5961ZM186.259 46.2286C189.463 46.2286 190.311 45.276 191.476 41.9131L196.507 27.3534H193.647L190.284 37.969L186.843 27.3534H183.797L188.934 41.5682L188.829 41.8852C188.147 43.9021 187.518 44.0268 186.067 44.0298H184.936V46.2272H186.259V46.2286ZM70.056 63.6551V55.0519H79.3768V52.5111H70.056V47.0316H79.9586V44.4643H67.0372V63.6565H70.056V63.6551ZM85.078 63.9985C87.2228 63.9985 88.5992 63.0723 89.4204 61.6426V63.6551H92.2012V49.4139H89.4468V57.1436C89.4468 59.9502 88.3084 61.6705 86.005 61.6705C83.5165 61.6705 83.1713 59.7916 83.1713 57.7264V49.4139H80.4169V58.4676C80.4169 61.9083 81.714 64 85.0766 64L85.078 63.9985ZM97.4 63.6551V56.0046C97.4 53.1716 98.5649 51.4513 100.947 51.4513C103.541 51.4513 103.887 53.3566 103.887 55.4218V63.6551H106.641V54.682C106.641 51.3735 105.317 49.1497 101.876 49.1497C99.652 49.1497 98.2227 50.0759 97.4015 51.4792V49.4139H94.6471V63.6551H97.4015H97.4ZM114.01 63.9985C116.101 63.9985 117.584 63.0987 118.458 61.6426V63.6551H121.212V44.4628H118.458V51.5041C117.584 50.048 116.101 49.1482 114.01 49.1482C110.7 49.1482 107.866 51.9283 107.866 56.5594C107.866 61.1905 110.7 63.9985 114.01 63.9985ZM114.646 61.6955C112.369 61.6955 110.806 59.7638 110.806 56.5594C110.806 53.3551 112.367 51.4498 114.646 51.4498C116.764 51.4498 118.565 53.038 118.565 56.5594C118.565 60.0808 116.764 61.6955 114.646 61.6955ZM49.9028 10.5156V14.7944C49.3563 15.0704 48.8114 15.3478 48.2634 15.6223C47.4466 16.0304 46.8238 16.6219 46.4463 17.4645C46.2318 17.9445 46.0878 18.4391 46.0864 18.9661C46.0864 19.333 46.0966 19.6985 46.1201 20.064C46.1921 21.1547 46.1319 22.2423 46.0158 23.3256C45.9086 24.3238 45.7206 25.3087 45.4664 26.2819C45.1183 27.6118 44.6453 28.8976 44.043 30.1336C43.2879 31.6866 42.3566 33.1265 41.246 34.4491C40.6643 35.1434 40.0429 35.7995 39.3716 36.4043C39.2276 36.5349 39.1821 36.6553 39.207 36.8431C39.2864 37.4244 39.3495 38.0086 39.4142 38.5928C39.4759 39.1521 39.5302 39.7113 39.5904 40.2706C39.6551 40.8798 39.7226 41.4889 39.7873 42.0981C39.8475 42.6573 39.9048 43.2166 39.9636 43.7758C40.0179 44.2881 40.0752 44.8004 40.1281 45.3127C40.1839 45.8514 40.2353 46.3901 40.2926 46.9273C40.3602 47.557 40.4322 48.1868 40.4997 48.8165C40.5673 49.4476 40.629 50.0788 40.6951 50.7085C40.7627 51.3427 40.8347 51.9782 40.9008 52.6124C40.9669 53.2479 41.0256 53.885 41.0932 54.5206C41.1696 55.2384 41.2563 55.9532 41.3327 56.671C41.4443 57.7176 41.5501 58.7641 41.6603 59.8107C41.7587 60.7443 41.8571 61.6778 41.957 62.6114C42.0069 63.0738 42.0613 63.5347 42.1142 63.9956H42.0216C41.9893 63.975 41.9585 63.9486 41.9217 63.9369C41.647 63.8488 41.3665 63.7769 41.0962 63.6756C40.4454 63.4334 39.799 63.178 39.1512 62.927C37.6484 62.3457 36.1471 61.763 34.6443 61.1817C33.2179 60.6298 31.7915 60.0808 30.3666 59.5289C28.9887 58.9975 27.6107 58.4662 26.2343 57.9319C26.1035 57.8805 25.9934 57.882 25.8641 57.9377C25.5997 58.0508 25.3279 58.1491 25.0591 58.2519C23.7531 58.7553 22.4472 59.2588 21.1413 59.7623C19.543 60.3803 17.9447 61.0012 16.345 61.6191C14.6027 62.2929 12.8605 62.9652 11.1183 63.6374C10.9508 63.702 10.7819 63.7637 10.6129 63.8253C10.4543 63.8826 10.2956 63.9384 10.1369 63.9956H10.0444C10.0973 63.5347 10.1516 63.0723 10.2016 62.6114C10.3029 61.6734 10.4014 60.734 10.5013 59.7946C10.6291 58.5939 10.7584 57.3946 10.8862 56.1939C11.0081 55.0505 11.1315 53.9055 11.2534 52.7621C11.3709 51.6538 11.4855 50.5456 11.603 49.4374C11.7441 48.109 11.888 46.7805 12.029 45.4521C12.148 44.3336 12.2611 43.2151 12.3801 42.0966C12.4888 41.0764 12.6005 40.0548 12.7107 39.0347C12.7474 38.6956 12.7812 38.3565 12.812 38.0174C12.8194 37.9426 12.8399 37.9117 12.9222 37.8839C13.0809 37.831 13.2292 37.7459 13.3805 37.6681C14.472 37.1118 15.562 36.5525 16.6549 35.9991C16.7049 35.9742 16.796 35.9874 16.8488 36.0167C17.8404 36.5554 18.8731 37.0002 19.9499 37.3422C21.0179 37.6813 22.1079 37.9103 23.2184 38.0394C24.2732 38.1613 25.3323 38.1818 26.39 38.1011C28.3658 37.9499 30.2652 37.4831 32.0824 36.6817C33.547 36.0343 34.8999 35.205 36.1295 34.1819C37.9275 32.6847 39.3657 30.8939 40.4366 28.811C41.2093 27.3094 41.7484 25.7285 42.051 24.0698C42.2787 22.8192 42.3874 21.5554 42.3096 20.2813C42.2802 19.7984 42.2332 19.3154 42.192 18.8325C42.1906 18.8076 42.1803 18.7841 42.17 18.7474C28.2483 25.8357 14.3354 32.9122 0.400399 39.999V39.8376C0.400399 38.515 0.401868 37.1925 0.397461 35.8685C0.397461 35.7525 0.435655 35.6982 0.537016 35.6468C8.13322 31.7878 15.728 27.9244 23.3227 24.0625L31.959 19.6736C33.3986 18.9411 34.8368 18.2101 36.2764 17.4762C38.9206 16.1287 41.5574 14.7709 44.2002 13.422C46.0496 12.4781 47.9035 11.5417 49.7544 10.6008C49.8044 10.5758 49.8529 10.545 49.9013 10.5156H49.9028ZM35.6168 39.1961C29.3544 42.5575 22.976 42.8511 16.4375 40.0945C15.797 46.1376 15.1551 52.1793 14.5131 58.2372C14.5792 58.2122 14.6218 58.1976 14.6659 58.1814C16.0717 57.6398 17.4776 57.0981 18.8834 56.5565C21.2176 55.6552 23.5519 54.7554 25.8847 53.8498C26.0272 53.794 26.1432 53.8028 26.2798 53.8571C28.0235 54.5367 29.7702 55.2119 31.5153 55.8871C33.2576 56.5609 34.9998 57.2332 36.7435 57.9055C37.0402 58.0199 37.337 58.133 37.6484 58.2533C36.9697 51.8843 36.294 45.5358 35.6197 39.1961H35.6168ZM26.4076 0.0424432C30.4356 0.303722 34.0978 1.59691 37.3899 3.93667C37.4148 3.95429 37.4369 3.9719 37.4751 4.00126C37.4207 4.03208 37.3781 4.05851 37.3341 4.08052C36.1207 4.69849 34.9058 5.31499 33.6939 5.93443C33.5969 5.98434 33.5235 5.99021 33.4236 5.93443C31.8106 5.04931 30.0963 4.44015 28.2879 4.10841C26.8586 3.84567 25.419 3.76493 23.9676 3.86768C21.9242 4.013 19.969 4.50327 18.1034 5.34435C16.1467 6.22653 14.4118 7.43018 12.9104 8.96409C10.9523 10.9618 9.56255 13.2987 8.73698 15.9717C8.41527 17.0138 8.2096 18.081 8.08915 19.1642C7.95841 20.3297 7.96428 21.4937 8.06564 22.6607C8.0818 22.8442 8.10971 23.0277 8.13469 23.2243C8.19345 23.1965 8.24486 23.1744 8.29334 23.1495C12.0819 21.2236 15.872 19.3008 19.659 17.3705C24.0528 15.1306 28.4407 12.8818 32.8345 10.6419C38.499 7.75457 44.1678 4.87317 49.8338 1.98882C49.8573 1.97708 49.8808 1.96827 49.9043 1.958V6.23681C46.4698 7.98356 43.0352 9.72884 39.6022 11.4771C35.8562 13.3823 32.1103 15.2862 28.3673 17.1944C19.0979 21.9165 9.83285 26.6415 0.567865 31.3651C0.519388 31.39 0.467973 31.4121 0.401868 31.4429V31.2741C0.401868 29.9559 0.403337 28.6393 0.39893 27.3211C0.39893 27.1978 0.438593 27.1421 0.54583 27.0877C1.12315 26.8 1.70928 26.527 2.26603 26.2026C3.56609 25.4467 4.22421 24.3018 4.21833 22.7957C4.21539 22.1455 4.15369 21.4952 4.16104 20.8449C4.20364 16.8157 5.28336 13.0873 7.45895 9.69068C9.74177 6.12672 12.837 3.49778 16.7034 1.77892C18.356 1.04352 20.0821 0.544451 21.8669 0.261154C23.3727 0.023361 24.8872 -0.0573713 26.4091 0.0409753L26.4076 0.0424432Z" fill="#F0F0EE"/>
</g>
<defs>
<clipPath id="clip0_300_878">
<rect width="197" height="64" fill="white" transform="translate(0.397461)"/>
</clipPath>
</defs>
</svg>
