<svg width="318" height="171" viewBox="0 0 318 171" fill="none" xmlns="http://www.w3.org/2000/svg">
<path d="M15.75 68H150V80H15.75V68Z" fill="#2A2A2A"/>
<path d="M0 87.5H184.25V102.5H0V87.5Z" fill="#2A2A2A"/>
<path d="M215.077 96.1165C215.077 95.329 215.266 94.7095 215.948 94.2055C216.525 93.775 216.977 93.5545 216.977 93.019C216.977 92.4625 216.505 92.0635 215.801 92.0635C215.129 92.0635 214.625 92.557 214.531 93.313L213.165 93.25C213.302 91.822 214.342 90.877 215.77 90.877C217.313 90.877 218.342 91.738 218.342 93.019C218.342 93.691 217.943 94.2895 217.145 94.7935C216.547 95.161 216.347 95.5705 216.347 96.1165H215.077ZM207.579 93.25C207.716 91.822 208.756 90.877 210.184 90.877C211.727 90.877 212.756 91.738 212.756 93.019C212.756 93.691 212.357 94.2895 211.559 94.7935C210.961 95.161 210.761 95.5705 210.761 96.1165H209.49C209.49 95.329 209.68 94.7095 210.362 94.2055C210.939 93.775 211.391 93.5545 211.391 93.019C211.391 92.4625 210.919 92.0635 210.215 92.0635C209.543 92.0635 209.039 92.557 208.945 93.313L207.579 93.25ZM209.375 98.5V97.0405H210.866V98.5H209.375ZM214.961 98.5V97.0405H216.452V98.5H214.961Z" fill="#FFC795"/>
<path d="M230.631 95.854C230.631 97.618 229.707 98.668 228.048 98.668C226.389 98.668 225.465 97.618 225.465 95.854V91.0345H226.756V95.9695C226.756 96.925 227.187 97.4815 228.048 97.4815C228.909 97.4815 229.339 96.925 229.339 95.9695V91.0345H230.631V95.854Z" fill="#FFC795"/>
<path d="M232.572 95.959C232.73 96.862 233.286 97.4395 234.2 97.4395C234.903 97.4395 235.376 97.0825 235.355 96.463C235.344 95.875 234.851 95.5075 233.738 95.2345C232.383 94.93 231.417 94.258 231.417 93.082C231.417 91.7275 232.425 90.877 233.916 90.877C235.397 90.877 236.415 91.864 236.594 93.313L235.271 93.3865C235.166 92.5885 234.63 92.0635 233.874 92.0635C233.181 92.0635 232.698 92.473 232.74 93.103C232.772 93.7645 233.465 93.985 234.284 94.174C235.659 94.4995 236.678 95.2555 236.678 96.4105C236.678 97.828 235.544 98.626 234.147 98.626C232.53 98.626 231.375 97.618 231.26 96.0535L232.572 95.959Z" fill="#FFC795"/>
<path d="M239.417 91.045C241.507 91.045 242.798 92.431 242.798 94.783C242.798 97.1245 241.528 98.5 239.48 98.5H237.391V91.045H239.417ZM238.682 97.3135H239.417C240.709 97.3135 241.433 96.4735 241.433 94.783C241.433 93.0715 240.709 92.2315 239.417 92.2315H238.682V97.3135Z" fill="#FFC795"/>
<path d="M248.677 95.959C248.415 97.66 247.396 98.668 245.958 98.668C244.089 98.668 242.986 97.1665 242.986 94.783C242.986 92.3785 244.089 90.877 245.958 90.877C247.333 90.877 248.331 91.843 248.646 93.46L247.281 93.544C247.06 92.5675 246.598 92.0635 245.926 92.0635C244.897 92.0635 244.341 93.019 244.341 94.783C244.341 96.5365 244.897 97.4815 245.926 97.4815C246.651 97.4815 247.123 96.946 247.323 95.8855L248.677 95.959Z" fill="#FFC795"/>
<path d="M117 0H222V12H117V0Z" fill="#2A2A2A"/>
<path d="M101.25 19.5H253.25V34.5H101.25V19.5Z" fill="#2A2A2A"/>
<path d="M284.077 28.1165C284.077 27.329 284.266 26.7095 284.948 26.2055C285.526 25.775 285.977 25.5545 285.977 25.019C285.977 24.4625 285.504 24.0635 284.801 24.0635C284.129 24.0635 283.625 24.557 283.53 25.313L282.165 25.25C282.302 23.822 283.341 22.877 284.77 22.877C286.313 22.877 287.342 23.738 287.342 25.019C287.342 25.691 286.943 26.2895 286.145 26.7935C285.546 27.161 285.347 27.5705 285.347 28.1165H284.077ZM276.579 25.25C276.716 23.822 277.755 22.877 279.184 22.877C280.727 22.877 281.756 23.738 281.756 25.019C281.756 25.691 281.357 26.2895 280.559 26.7935C279.96 27.161 279.761 27.5705 279.761 28.1165H278.491C278.491 27.329 278.68 26.7095 279.362 26.2055C279.94 25.775 280.391 25.5545 280.391 25.019C280.391 24.4625 279.918 24.0635 279.215 24.0635C278.543 24.0635 278.039 24.557 277.944 25.313L276.579 25.25ZM278.375 30.5V29.0405H279.866V30.5H278.375ZM283.961 30.5V29.0405H285.452V30.5H283.961Z" fill="#FFC795"/>
<path d="M299.631 27.854C299.631 29.618 298.707 30.668 297.048 30.668C295.389 30.668 294.465 29.618 294.465 27.854V23.0345H295.756V27.9695C295.756 28.925 296.187 29.4815 297.048 29.4815C297.909 29.4815 298.339 28.925 298.339 27.9695V23.0345H299.631V27.854Z" fill="#FFC795"/>
<path d="M301.572 27.959C301.73 28.862 302.286 29.4395 303.2 29.4395C303.903 29.4395 304.376 29.0825 304.355 28.463C304.344 27.875 303.851 27.5075 302.738 27.2345C301.383 26.93 300.417 26.258 300.417 25.082C300.417 23.7275 301.425 22.877 302.916 22.877C304.397 22.877 305.415 23.864 305.594 25.313L304.271 25.3865C304.166 24.5885 303.63 24.0635 302.874 24.0635C302.181 24.0635 301.698 24.473 301.74 25.103C301.772 25.7645 302.465 25.985 303.284 26.174C304.659 26.4995 305.678 27.2555 305.678 28.4105C305.678 29.828 304.544 30.626 303.147 30.626C301.53 30.626 300.375 29.618 300.26 28.0535L301.572 27.959Z" fill="#FFC795"/>
<path d="M308.417 23.045C310.507 23.045 311.798 24.431 311.798 26.783C311.798 29.1245 310.528 30.5 308.48 30.5H306.391V23.045H308.417ZM307.682 29.3135H308.417C309.709 29.3135 310.433 28.4735 310.433 26.783C310.433 25.0715 309.709 24.2315 308.417 24.2315H307.682V29.3135Z" fill="#FFC795"/>
<path d="M317.677 27.959C317.415 29.66 316.396 30.668 314.958 30.668C313.089 30.668 311.986 29.1665 311.986 26.783C311.986 24.3785 313.089 22.877 314.958 22.877C316.333 22.877 317.331 23.843 317.646 25.46L316.281 25.544C316.06 24.5675 315.598 24.0635 314.926 24.0635C313.897 24.0635 313.341 25.019 313.341 26.783C313.341 28.5365 313.897 29.4815 314.926 29.4815C315.651 29.4815 316.123 28.946 316.323 27.8855L317.677 27.959Z" fill="#FFC795"/>
<path d="M114.5 136H193.25V148H114.5V136Z" fill="#2A2A2A"/>
<path d="M98.75 155.5H154.75V170.5H98.75V155.5Z" fill="#2A2A2A"/>
<path d="M185.577 164.117C185.577 163.329 185.766 162.71 186.448 162.206C187.025 161.775 187.477 161.555 187.477 161.019C187.477 160.462 187.005 160.064 186.301 160.064C185.629 160.064 185.125 160.557 185.031 161.313L183.665 161.25C183.802 159.822 184.842 158.877 186.27 158.877C187.813 158.877 188.842 159.738 188.842 161.019C188.842 161.691 188.443 162.29 187.645 162.794C187.047 163.161 186.847 163.57 186.847 164.117H185.577ZM178.079 161.25C178.216 159.822 179.256 158.877 180.684 158.877C182.227 158.877 183.256 159.738 183.256 161.019C183.256 161.691 182.857 162.29 182.059 162.794C181.461 163.161 181.261 163.57 181.261 164.117H179.99C179.99 163.329 180.18 162.71 180.862 162.206C181.439 161.775 181.891 161.555 181.891 161.019C181.891 160.462 181.419 160.064 180.715 160.064C180.043 160.064 179.539 160.557 179.445 161.313L178.079 161.25ZM179.875 166.5V165.04H181.366V166.5H179.875ZM185.461 166.5V165.04H186.952V166.5H185.461Z" fill="#FFC795"/>
<path d="M201.131 163.854C201.131 165.618 200.207 166.668 198.548 166.668C196.889 166.668 195.965 165.618 195.965 163.854V159.035H197.256V163.969C197.256 164.925 197.687 165.482 198.548 165.482C199.409 165.482 199.839 164.925 199.839 163.969V159.035H201.131V163.854Z" fill="#FFC795"/>
<path d="M203.072 163.959C203.23 164.862 203.786 165.439 204.7 165.439C205.403 165.439 205.876 165.083 205.855 164.463C205.844 163.875 205.351 163.507 204.238 163.234C202.883 162.93 201.917 162.258 201.917 161.082C201.917 159.727 202.925 158.877 204.416 158.877C205.897 158.877 206.915 159.864 207.094 161.313L205.771 161.387C205.666 160.589 205.13 160.064 204.374 160.064C203.681 160.064 203.198 160.473 203.24 161.103C203.272 161.764 203.965 161.985 204.784 162.174C206.159 162.499 207.178 163.256 207.178 164.411C207.178 165.828 206.044 166.626 204.647 166.626C203.03 166.626 201.875 165.618 201.76 164.053L203.072 163.959Z" fill="#FFC795"/>
<path d="M209.917 159.045C212.007 159.045 213.298 160.431 213.298 162.783C213.298 165.125 212.028 166.5 209.98 166.5H207.891V159.045H209.917ZM209.182 165.314H209.917C211.209 165.314 211.933 164.474 211.933 162.783C211.933 161.072 211.209 160.232 209.917 160.232H209.182V165.314Z" fill="#FFC795"/>
<path d="M219.177 163.959C218.915 165.66 217.896 166.668 216.458 166.668C214.589 166.668 213.486 165.167 213.486 162.783C213.486 160.379 214.589 158.877 216.458 158.877C217.833 158.877 218.831 159.843 219.146 161.46L217.781 161.544C217.56 160.568 217.098 160.064 216.426 160.064C215.397 160.064 214.841 161.019 214.841 162.783C214.841 164.536 215.397 165.482 216.426 165.482C217.151 165.482 217.623 164.946 217.823 163.885L219.177 163.959Z" fill="#FFC795"/>
</svg>
